<?xml version="1.0" encoding="UTF-8"?> <!-- Generator: Adobe Illustrator 23.0.4, SVG Export Plug-In . SVG Version: 6.00 Build 0) --> <svg xmlns="http://www.w3.org/2000/svg" xmlns:xlink="http://www.w3.org/1999/xlink" id="Layer_1" x="0px" y="0px" viewBox="0 0 432 59.8" style="enable-background:new 0 0 432 59.8;" xml:space="preserve"> <style type="text/css"> .st0{fill:#415465;} </style> <g> <g> <polygon class="st0" points="408.5,54.4 408.5,34.1 428.8,34.1 428.8,28.7 408.5,28.7 408.5,8.5 432,8.5 432,3 402.8,3 402.8,59.8 432,59.8 432,54.4 "></polygon> <polygon class="st0" points="349,59.8 378.2,59.8 378.2,54.4 354.7,54.4 354.7,3 349,3 "></polygon> <polygon class="st0" points="321.3,59.8 327.6,59.8 298.1,0 268.7,59.8 275,59.8 286.6,36.1 298.1,12.2 310.2,37.5 "></polygon> <path class="st0" d="M222.7,3h-11v56.8h11c15.7,0,28.6-12.6,28.6-28.4S238.4,3,222.7,3z M222.7,54.4h-5.3v-46h5.3 c12.6,0,22.5,10.4,22.5,23S235.3,54.4,222.7,54.4z"></path> <polygon class="st0" points="157.9,59.8 187.1,59.8 187.1,54.4 163.6,54.4 163.6,3 157.9,3 "></polygon> <polygon class="st0" points="104.1,59.8 133.3,59.8 133.3,54.4 109.8,54.4 109.8,3 104.1,3 "></polygon> <rect x="69" y="3" class="st0" width="5.7" height="56.8"></rect> <polygon class="st0" points="33.8,59.8 39.6,59.8 39.6,3 33.8,3 33.8,28.7 5.7,28.7 5.7,3 0,3 0,59.8 5.7,59.8 5.7,34.1 33.8,34.1 "></polygon> </g> </g> </svg> 